PathFileType	4	(X/Y/Z)	./resultDataOpenSim/trcMotMarkerGrf/sub10/qtm-12-03.trc
DataRate	CameraRate	NumFrames	NumMarkers	Units	OrigDataRate	OrigDataStartFrame	OrigNumFrames
250.000000	250.000000	6	24	m	250.000000	292	466
Frame#	Time	L.Toe.Tip			R.Toe.Tip			L.Ankle.Lat			R.Ankle.Lat			L.Ankle.Med			R.Ankle.Med			L.Heel			R.Heel			L.Knee.Lat			R.Knee.Lat			L.Knee.Med			R.Knee.Med			L.Thigh.Upper			R.Thigh.Upper			L.ASIS			R.ASIS			V.Sacral			L.Acromium			R.Acromium			C7			L.Elbow			R.Elbow			L.Wrist.Lat			R.Wrist.Lat
		X1	Y1	Z1	X2	Y2	Z2	X3	Y3	Z3	X4	Y4	Z4	X5	Y5	Z5	X6	Y6	Z6	X7	Y7	Z7	X8	Y8	Z8	X9	Y9	Z9	X10	Y10	Z10	X11	Y11	Z11	X12	Y12	Z12	X13	Y13	Z13	X14	Y14	Z14	X15	Y15	Z15	X16	Y16	Z16	X17	Y17	Z17	X18	Y18	Z18	X19	Y19	Z19	X20	Y20	Z20	X21	Y21	Z21	X22	Y22	Z22	X23	Y23	Z23	X24	Y24	Z24

292	1.164	0.054004367	0.017795063	-0.13368061	0.87107535	0.043663072	0.046584637	0.00012112059	0.13980777	-0.16667687	0.73342737	0.053450175	0.09659264	0.031582511	0.14468837	-0.087457826	0.74564059	0.080709831	0.0121224	-0.057288786	0.16786313	-0.11733718	0.6819004	0.027909051	0.053919973	0.2814292	0.40227874	-0.19816051	0.67397033	0.45421785	0.10638473	0.29883757	0.36654459	-0.080901746	0.67681519	0.4523463	-0.021976533	0.39654804	0.77455311	-0.226255	0.50803081	0.82047968	0.14894008	0.4835917	0.87682865	-0.18354019	0.54353422	0.90307622	0.050004938	0.321285	0.90555723	-0.0090838965	0.43357897	1.3711675	-0.17726099	0.39363971	1.3512475	0.13989729	0.33998939	1.3843181	-0.030750567	0.39720551	1.0525067	-0.32083019	0.24636182	1.0489547	0.1847223	0.65482441	1.013669	-0.39085461	0.22795878	0.86569559	0.34725587
293	1.168	0.056146453	0.018504704	-0.13394969	0.8723955	0.042957089	0.047022756	0.0066275983	0.14227282	-0.1677249	0.73412364	0.053529791	0.09647139	0.038231361	0.14661004	-0.088569009	0.74667191	0.080599711	0.011996629	-0.049973758	0.17220187	-0.11846529	0.68240276	0.028237644	0.0539344	0.28940453	0.4032731	-0.19853264	0.68081407	0.45571553	0.10695063	0.30779702	0.3661727	-0.081863611	0.68221164	0.45376244	-0.021624956	0.40568996	0.77425748	-0.22571567	0.51526338	0.82263992	0.14988823	0.4924073	0.8769506	-0.1818908	0.55119654	0.90444004	0.051626193	0.32936604	0.90677323	-0.0095846306	0.44057856	1.3720681	-0.17617268	0.40047152	1.3515752	0.14100496	0.34696349	1.3849758	-0.029592675	0.40318533	1.0528371	-0.31905214	0.2543777	1.0486696	0.18443545	0.66030937	1.0131555	-0.38910364	0.23528532	0.86495561	0.34638904
294	1.172	0.058509961	0.0195129	-0.13419452	0.87345538	0.042255326	0.047350781	0.013266604	0.1447994	-0.16880171	0.73469065	0.053597872	0.096357474	0.044890811	0.14869416	-0.089689098	0.74755929	0.080521596	0.011884514	-0.042535298	0.17661897	-0.1198084	0.68281344	0.028496976	0.053978898	0.29753104	0.40416675	-0.19882616	0.68749356	0.45687679	0.10741706	0.31701242	0.36572213	-0.082922879	0.68772614	0.45515688	-0.021229469	0.41477802	0.77392437	-0.22517353	0.52233302	0.8247227	0.15079842	0.50110231	0.87704582	-0.18020806	0.55875354	0.90585313	0.053252087	0.33729981	0.90786076	-0.010177769	0.44758446	1.3729452	-0.17510433	0.40733121	1.351892	0.14207759	0.35392186	1.3855919	-0.028551525	0.40890493	1.0532383	-0.31713102	0.26243116	1.0483472	0.18411136	0.6657481	1.012535	-0.38736199	0.24278493	0.86421004	0.34555775
295	1.176	0.061046236	0.020748447	-0.13446599	0.87422767	0.041620881	0.047440795	0.020067893	0.14741023	-0.16993502	0.73508304	0.05363817	0.096294198	0.051612715	0.15092234	-0.090815503	0.74823517	0.080451805	0.011815052	-0.034897435	0.18113594	-0.12128544	0.68312811	0.028683298	0.054085724	0.30590512	0.40495015	-0.19910002	0.69401219	0.45773483	0.10784731	0.32643395	0.36522105	-0.08400108	0.6933581	0.45647738	-0.02078955	0.4238022	0.77357126	-0.22465683	0.52921657	0.82671863	0.15165137	0.50966443	0.87710919	-0.17851873	0.56620047	0.90731122	0.054857949	0.34504998	0.90885749	-0.010824124	0.45460371	1.373809	-0.17405884	0.41421711	1.3522153	0.14311527	0.36082238	1.3861685	-0.027575379	0.41445895	1.053679	-0.31512468	0.27051346	1.0479944	0.18376962	0.67113764	1.0118103	-0.38563783	0.25042258	0.86346034	0.34474341
296	1.18	0.063698476	0.022137672	-0.13479468	0.87477914	0.041120678	0.047309146	0.027065849	0.15012232	-0.17112266	0.73524101	0.053680895	0.096335585	0.058461223	0.15324835	-0.091957871	0.74871295	0.080384289	0.011795026	-0.026964079	0.18577069	-0.12281159	0.6833653	0.028813491	0.054240267	0.31452402	0.40562769	-0.19933613	0.70031774	0.45832773	0.10827475	0.3359477	0.3646831	-0.08495501	0.69909341	0.4576829	-0.0203244	0.43275071	0.7732228	-0.22418312	0.53585663	0.82860978	0.15241574	0.51808007	0.87714502	-0.1768551	0.57353152	0.90880311	0.056414538	0.35262401	0.9097689	-0.011486945	0.46163693	1.3746731	-0.17304684	0.42114802	1.3525634	0.14412806	0.36762531	1.3867451	-0.026598468	0.41994126	1.0541324	-0.31308085	0.27861711	1.0476281	0.18342396	0.67646421	1.0109856	-0.38394255	0.2582372	0.86271105	0.34394286
297	1.184	0.066420702	0.023617959	-0.13518105	0.87520196	0.040733449	0.047110908	0.03428724	0.1529463	-0.172362	0.7351611	0.053761078	0.09649923	0.065498386	0.15561409	-0.093124711	0.74905952	0.080328265	0.01182217	-0.018642392	0.19051988	-0.12431193	0.68355271	0.028911787	0.05440232	0.3233467	0.40621072	-0.19948979	0.70632291	0.4586891	0.1087033	0.34546877	0.36411486	-0.085677245	0.70489881	0.45874558	-0.019847352	0.44161547	0.77290541	-0.22375954	0.54224678	0.83037397	0.15309815	0.52634516	0.87717808	-0.17523736	0.58074312	0.91031228	0.057893605	0.36000304	0.91059152	-0.012205807	0.4686765	1.3755476	-0.17208178	0.42814212	1.3529455	0.14512836	0.37430988	1.3873663	-0.025571737	0.42538537	1.0545971	-0.31100733	0.28673736	1.0472676	0.18308283	0.6817082	1.0100607	-0.38229623	0.26630796	0.86196294	0.3431593
